<svg id="Capa_1" enable-background="new 0 0 512.127 512.127" height="512" viewBox="0 0 512.127 512.127" width="512" xmlns="http://www.w3.org/2000/svg"><g><path d="m498.989 13.133c-15.833-15.833-41.204-17.564-59.014-4.028l-268.805 204.19-29.994 51.586-72.996 73.001c-73.674 73.674-68.257 156.736-67.99 160.236l.977 12.82 12.817.997c.512.04 2.726.192 6.37.192 21.232 0 90.903-5.193 153.891-68.181l72.997-73 51.584-29.994 204.188-268.802c13.538-17.812 11.808-43.184-4.025-59.017zm-327.055 258.533 13.869-23.854 78.506 78.506-23.854 13.869zm-18.77 23.655 63.638 63.638-42.426 42.428-63.638-63.638zm-92.413 181.169c-12.119 3.151-22.577 4.569-30.298 5.183.614-7.718 2.03-18.164 5.174-30.266 8.98-34.558 27.069-65.616 53.766-92.313l.133-.133 63.638 63.637-.133.133c-26.688 26.689-57.735 44.776-92.28 53.759zm418.377-422.49-191.98 252.73-81.756-81.756 252.733-191.981c5.929-4.506 14.375-3.922 19.651 1.354 5.276 5.275 5.858 13.724 1.352 19.653z"/></g></svg>